<svg xmlns="http://www.w3.org/2000/svg" viewBox="0 0 256 256" width="256" height="256">
  <defs>
    <linearGradient id="pg" x1="0" y1="0" x2="1" y2="1">
      <stop offset="0%" stop-color="#FFB0D9"/>
      <stop offset="100%" stop-color="#E854A0"/>
    </linearGradient>
    <linearGradient id="mg" x1="0" y1="0" x2="0" y2="1">
      <stop offset="0%" stop-color="#FF80C4"/>
      <stop offset="100%" stop-color="#D44090"/>
    </linearGradient>
  </defs>

  <!-- Letter P -->
  <path d="
    M 48 224 L 48 38 Q 48 22 64 22 L 144 22
    Q 200 22 200 80 Q 200 138 144 138 L 92 138
    L 92 224 Q 92 238 70 238 Q 48 238 48 224 Z
    M 92 62 L 92 98 L 136 98 Q 158 98 158 80
    Q 158 62 136 62 Z
  " fill="url(#pg)" fill-rule="evenodd"/>

  <!-- Microphone - bottom right -->
  <!-- Mic head (capsule) -->
  <rect x="168" y="148" width="52" height="56" rx="26" fill="url(#mg)"/>

  <!-- Mic grille -->
  <line x1="180" y1="162" x2="208" y2="162" stroke="white" stroke-width="2.5" opacity="0.5" stroke-linecap="round"/>
  <line x1="178" y1="174" x2="210" y2="174" stroke="white" stroke-width="2.5" opacity="0.5" stroke-linecap="round"/>
  <line x1="180" y1="186" x2="208" y2="186" stroke="white" stroke-width="2.5" opacity="0.5" stroke-linecap="round"/>

  <!-- Mic stem -->
  <rect x="189" y="204" width="10" height="20" rx="2" fill="url(#mg)"/>

  <!-- Mic base -->
  <rect x="176" y="222" width="36" height="8" rx="4" fill="url(#mg)"/>
</svg>
